{
  "accessors": [
    {
      "bufferView": 2,
      "componentType": 5126,
      "count": 8242,
      "max": [
        68.42030334472656,
        68.1413345336914,
        213.49830627441406
      ],
      "min": [
        -68.367431640625,
        -38.37992477416992,
        -23.39813232421875
      ],
      "type": "VEC3"
    },
    {
      "bufferView": 2,
      "byteOffset": 98904,
      "componentType": 5126,
      "count": 8242,
      "max": [
        1.0,
        1.0,
        1.0
      ],
      "min": [
        -1.0,
        -1.0,
        -1.0
      ],
      "type": "VEC3"
    },
    {
      "bufferView": 3,
      "componentType": 5126,
      "count": 8242,
      "max": [
        1.0,
        1.0,
        0.9999999403953552,
        1.0
      ],
      "min": [
        -0.9999855160713196,
        -1.0,
        -1.0,
        -1.0
      ],
      "type": "VEC4"
    },
    {
      "bufferView": 1,
      "componentType": 5126,
      "count": 8242,
      "max": [
        1.0,
        0.9984440207481384
      ],
      "min": [
        0.0,
        0.0
      ],
      "type": "VEC2"
    },
    {
      "bufferView": 0,
      "componentType": 5125,
      "count": 19506,
      "type": "SCALAR"
    },
    {
      "bufferView": 2,
      "byteOffset": 197808,
      "componentType": 5126,
      "count": 1266,
      "max": [
        26.435924530029297,
        28.502952575683594,
        97.3508071899414
      ],
      "min": [
        -23.241182327270508,
        -27.311676025390625,
        -136.93646240234375
      ],
      "type": "VEC3"
    },
    {
      "bufferView": 2,
      "byteOffset": 213000,
      "componentType": 5126,
      "count": 1266,
      "max": [
        0.9997492432594299,
        0.9997492432594299,
        1.0
      ],
      "min": [
        -0.9997492432594299,
        -0.9997492432594299,
        -1.0
      ],
      "type": "VEC3"
    },
    {
      "bufferView": 3,
      "byteOffset": 131872,
      "componentType": 5126,
      "count": 1266,
      "max": [
        0.9997748136520386,
        0.9998753666877747,
        0.9892954230308533,
        1.0
      ],
      "min": [
        -1.0,
        -0.9997690320014954,
        -0.9998731017112732,
        1.0
      ],
      "type": "VEC4"
    },
    {
      "bufferView": 1,
      "byteOffset": 65936,
      "componentType": 5126,
      "count": 1266,
      "max": [
        0.9722909927368164,
        0.9862840175628662
      ],
      "min": [
        0.01619499921798706,
        0.015323000028729439
      ],
      "type": "VEC2"
    },
    {
      "bufferView": 0,
      "byteOffset": 78024,
      "componentType": 5125,
      "count": 4704,
      "type": "SCALAR"
    }
  ],
  "asset": {
    "extras": {
      "author": "Leon_dp (https://sketchfab.com/leondp)",
      "license": "CC-BY-4.0 (http://creativecommons.org/licenses/by/4.0/)",
      "source": "https://sketchfab.com/3d-models/dilapidated-wooden-spiral-staircase-old-wood-71b1b423f78b40a1b672046122cf508d",
      "title": "Dilapidated wooden spiral staircase (old wood)"
    },
    "generator": "Sketchfab-12.68.0",
    "version": "2.0"
  },
  "bufferViews": [
    {
      "buffer": 0,
      "byteLength": 96840,
      "name": "floatBufferViews",
      "target": 34963
    },
    {
      "buffer": 0,
      "byteLength": 76064,
      "byteOffset": 96840,
      "byteStride": 8,
      "name": "floatBufferViews",
      "target": 34962
    },
    {
      "buffer": 0,
      "byteLength": 228192,
      "byteOffset": 172904,
      "byteStride": 12,
      "name": "floatBufferViews",
      "target": 34962
    },
    {
      "buffer": 0,
      "byteLength": 152128,
      "byteOffset": 401096,
      "byteStride": 16,
      "name": "floatBufferViews",
      "target": 34962
    }
  ],
  "buffers": [
    {
      "byteLength": 553224,
      "uri": "scene.bin"
    }
  ],
  "images": [
    {
      "uri": "textures/wood_baseColor.jpeg"
    },
    {
      "uri": "textures/wood_metallicRoughness.png"
    },
    {
      "uri": "textures/wood_normal.png"
    },
    {
      "uri": "textures/wood_0_baseColor.jpeg"
    },
    {
      "uri": "textures/wood_0_metallicRoughness.png"
    },
    {
      "uri": "textures/wood_0_normal.png"
    }
  ],
  "materials": [
    {
      "doubleSided": true,
      "name": "wood",
      "normalTexture": {
        "index": 2
      },
      "occlusionTexture": {
        "index": 1
      },
      "pbrMetallicRoughness": {
        "baseColorTexture": {
          "index": 0
        },
        "metallicRoughnessTexture": {
          "index": 1
        }
      }
    },
    {
      "doubleSided": true,
      "name": "wood_0",
      "normalTexture": {
        "index": 5,
        "scale": 0.26328768052280965
      },
      "occlusionTexture": {
        "index": 4
      },
      "pbrMetallicRoughness": {
        "baseColorTexture": {
          "index": 3
        },
        "metallicRoughnessTexture": {
          "index": 4
        }
      }
    }
  ],
  "meshes": [
    {
      "name": "defaultMaterial",
      "primitives": [
        {
          "attributes": {
            "NORMAL": 1,
            "POSITION": 0,
            "TANGENT": 2,
            "TEXCOORD_0": 3
          },
          "indices": 4,
          "material": 1,
          "mode": 4
        }
      ]
    },
    {
      "name": "defaultMaterial",
      "primitives": [
        {
          "attributes": {
            "NORMAL": 6,
            "POSITION": 5,
            "TANGENT": 7,
            "TEXCOORD_0": 8
          },
          "indices": 9,
          "material": 0,
          "mode": 4
        }
      ]
    }
  ],
  "nodes": [
    {
      "children": [
        1
      ],
      "matrix": [
        1.0,
        0.0,
        0.0,
        0.0,
        0.0,
        2.220446049250313e-16,
        -1.0,
        0.0,
        0.0,
        1.0,
        2.220446049250313e-16,
        0.0,
        0.0,
        0.0,
        0.0,
        1.0
      ],
      "name": "Sketchfab_model"
    },
    {
      "children": [
        2,
        4
      ],
      "matrix": [
        1.0,
        0.0,
        0.0,
        0.0,
        0.0,
        -4.371139006309477e-08,
        0.999999999999999,
        0.0,
        0.0,
        -0.999999999999999,
        -4.371139006309477e-08,
        0.0,
        0.0,
        0.0,
        0.0,
        1.0
      ],
      "name": "Collada visual scene group"
    },
    {
      "children": [
        3
      ],
      "matrix": [
        14.337359,
        0.0,
        0.0,
        0.0,
        0.0,
        -2e-06,
        -14.337359,
        0.0,
        0.0,
        14.337359,
        -2e-06,
        0.0,
        90.132217,
        -407.639709,
        1161.263428,
        1.0
      ],
      "name": "STEP"
    },
    {
      "mesh": 0,
      "name": "defaultMaterial"
    },
    {
      "children": [
        5
      ],
      "matrix": [
        9.843359,
        0.0,
        -1.369748,
        0.0,
        -1.369748,
        1e-06,
        -9.843359,
        0.0,
        0.0,
        19.876411,
        1e-06,
        0.0,
        116.811516,
        1978.934326,
        1139.713623,
        1.0
      ],
      "name": "PILLAR"
    },
    {
      "mesh": 1,
      "name": "defaultMaterial"
    }
  ],
  "samplers": [
    {
      "magFilter": 9729,
      "minFilter": 9987,
      "wrapS": 10497,
      "wrapT": 10497
    }
  ],
  "scene": 0,
  "scenes": [
    {
      "name": "Sketchfab_Scene",
      "nodes": [
        0
      ]
    }
  ],
  "textures": [
    {
      "sampler": 0,
      "source": 0
    },
    {
      "sampler": 0,
      "source": 1
    },
    {
      "sampler": 0,
      "source": 2
    },
    {
      "sampler": 0,
      "source": 3
    },
    {
      "sampler": 0,
      "source": 4
    },
    {
      "sampler": 0,
      "source": 5
    }
  ]
}
